<svg width="512" height="512" viewBox="0 0 512 512" fill="none" xmlns="http://www.w3.org/2000/svg">
<g clip-path="url(#clip0_1030_18)">
<path d="M256.5 26C211.109 26 166.738 39.4599 128.997 64.6777C91.2556 89.8955 61.8401 125.738 44.4697 167.674C27.0994 209.61 22.5546 255.755 31.4099 300.273C40.2652 344.792 62.1229 385.685 94.2191 417.781C126.315 449.877 167.208 471.735 211.727 480.59C256.245 489.445 302.39 484.901 344.326 467.53C386.262 450.16 422.104 420.744 447.322 383.003C472.54 345.262 486 300.891 486 255.5C486 225.362 480.064 195.518 468.53 167.674C456.997 139.83 440.092 114.53 418.781 93.219C397.47 71.9079 372.17 55.0031 344.326 43.4696C316.482 31.9362 286.638 26 256.5 26ZM362.873 182.06C359.431 218.344 344.513 306.403 336.871 347.047C333.658 364.26 327.324 369.997 321.196 370.594C307.862 371.81 297.741 361.781 284.843 353.313C264.624 340.071 253.218 331.832 233.619 318.888C210.967 303.947 225.655 295.754 238.553 282.328C241.95 278.817 300.656 225.412 301.803 220.57C301.96 219.856 301.944 219.115 301.756 218.408C301.569 217.702 301.215 217.05 300.725 216.508C300.025 216.064 299.23 215.791 298.404 215.711C297.579 215.631 296.746 215.747 295.974 216.049C293.954 216.508 261.687 237.836 199.171 280.033C192.032 285.602 183.338 288.81 174.293 289.213C162.113 287.762 150.139 284.921 138.606 280.745C124.239 276.155 112.81 273.585 113.797 265.667C114.317 261.536 120.009 257.305 130.872 252.975C197.794 223.905 242.409 204.689 264.716 195.325C328.448 168.818 341.69 164.205 350.343 164.067C353.509 164.004 356.615 164.935 359.224 166.729C361.054 168.319 362.217 170.54 362.483 172.949C362.964 175.938 363.094 178.972 362.873 181.991" fill="black"/>
<circle cx="418.5" cy="93.5" r="48.5" fill="#28A7E8"/>
</g>
<defs>
<clipPath id="clip0_1030_18">
<rect width="459" height="459" fill="white" transform="translate(27 26)"/>
</clipPath>
</defs>
</svg>
